<svg xmlns="http://www.w3.org/2000/svg" viewBox="0 0 191.56 140.14"><defs>
<style>.cls-1{opacity:0.1;}.cls-2{fill:#c2ae00;}.cls-11,.cls-3{opacity:0.2;}.cls-4,.cls-5{fill:#fff;}.cls-4{opacity:0.5;}.cls-6{fill:#efeee4;}.cls-7{fill:#52c877;}.cls-8{fill:#f6f8fa;}.cls-9{fill:#944cc8;}.cls-10{opacity:0.4;}.cls-12{fill:#fafafa;}.cls-13{fill:#455a64;}</style>
</defs><g id="Boxes"><g id="Box">
<path id="Shadow" class="cls-1" d="M290.45,153.48l-35,20.19a3.06,3.06,0,0,0-1.4,2.42v42.23c0,.9.62,1.26,1.4.81l35-20.19a3.09,3.09,0,0,0,1.4-2.42V154.29C291.85,153.39,291.22,153,290.45,153.48Z" transform="translate(-111.13 -153.29)"/>
<g id="Box-2" data-name="Box">
<path class="cls-2" d="M295.82,155.17l-35,20.18a3.08,3.08,0,0,0-1.4,2.43V220a3.07,3.07,0,0,0,1.4,2.41l2.67,1.51a3.12,3.12,0,0,0,2.81,0l35-20.19a3.09,3.09,0,0,0,1.4-2.42V159.07a3.05,3.05,0,0,0-1.41-2.41l-2.67-1.51A3.1,3.1,0,0,0,295.82,155.17Z" transform="translate(-111.13 -153.29)"/>
<path class="cls-3" d="M266.26,223.92a3.22,3.22,0,0,1-2.81,0l-2.67-1.52a3.07,3.07,0,0,1-1.4-2.41V177.78a2.87,2.87,0,0,1,.44-1.43l5.45,3.15a2.76,2.76,0,0,0-.41,1.38v42.23C264.86,223.93,265.43,224.4,266.26,223.92Z" transform="translate(-111.13 -153.29)"/>
<path class="cls-4" d="M302.68,158.82c-.11-.7-.69-1-1.39-.56l-35,20.19a2.87,2.87,0,0,0-1,1.05l-5.46-3.15a2.82,2.82,0,0,1,1-1l35-20.19a3.13,3.13,0,0,1,2.8,0l2.67,1.51A3.12,3.12,0,0,1,302.68,158.82Z" transform="translate(-111.13 -153.29)"/>
<path class="cls-2" d="M301.3,158.27l-35,20.18a3.1,3.1,0,0,0-1.4,2.43v42.23c0,.89.62,1.26,1.4.81l35-20.19a3.09,3.09,0,0,0,1.4-2.42V159.07C302.7,158.18,302.07,157.82,301.3,158.27Z" transform="translate(-111.13 -153.29)"/></g>
<g id="_" data-name="&lt;/&gt;">
<path class="cls-5" d="M274.59,186.48a1.17,1.17,0,0,1,.09-.48,3.41,3.41,0,0,1,.24-.45l4.58-7.39.07-.09.05,0a.13.13,0,0,1,.17,0,.29.29,0,0,1,.07.23v2.85a1.2,1.2,0,0,1-.13.59l-.23.39-2,3.08,2,.78a.92.92,0,0,1,.23.11c.09.05.13.2.13.43v2.85a.67.67,0,0,1-.07.31.42.42,0,0,1-.17.2l-.05,0h-.07l-4.58-2.11a.55.55,0,0,1-.24-.17.57.57,0,0,1-.09-.38Z" transform="translate(-111.13 -153.29)"/>
<path class="cls-5" d="M284.56,174a2.36,2.36,0,0,1,.17-.46,1,1,0,0,1,.33-.36l1.53-.88a.14.14,0,0,1,.18,0,.3.3,0,0,1,.08.23.61.61,0,0,1,0,.17L283,189.13a2,2,0,0,1-.16.45.87.87,0,0,1-.34.37l-1.5.87a.15.15,0,0,1-.18,0,.3.3,0,0,1-.07-.23.59.59,0,0,1,0-.17Z" transform="translate(-111.13 -153.29)"/>
<path class="cls-5" d="M293,176.62a1.42,1.42,0,0,1-.08.48,3.62,3.62,0,0,1-.25.45l-4.57,7.39L288,185l-.05,0a.13.13,0,0,1-.17,0,.3.3,0,0,1-.07-.23V182a1.24,1.24,0,0,1,.13-.58q.14-.24.24-.39l2-3.09-2-.76a.89.89,0,0,1-.24-.12.56.56,0,0,1-.13-.44v-2.86a.66.66,0,0,1,.07-.3.43.43,0,0,1,.17-.2l.05,0h.08l4.57,2.11a.67.67,0,0,1,.25.16.71.71,0,0,1,.08.39Z" transform="translate(-111.13 -153.29)"/>
</g>
<path class="cls-6" d="M283,203a10.11,10.11,0,0,1-.32,2.57,9.87,9.87,0,0,1-.87,2.22,8.35,8.35,0,0,1-1.27,1.76,6.89,6.89,0,0,1-1.53,1.22,3.84,3.84,0,0,1-1.59.57,1.92,1.92,0,0,1-1.25-.26,2.13,2.13,0,0,1-.84-1,5,5,0,0,1-.31-1.83.84.84,0,0,1,.09-.37.47.47,0,0,1,.2-.25l1.72-1c.17-.1.28-.13.33-.07a.8.8,0,0,1,.16.38,1.12,1.12,0,0,0,.51.77c.22.11.55,0,1-.21a2.79,2.79,0,0,0,1.15-1.25,4.53,4.53,0,0,0,.38-1.92v-5.75L276,201.23a.21.21,0,0,1-.26,0,.45.45,0,0,1-.1-.33V198.7a1,1,0,0,1,.1-.45.72.72,0,0,1,.26-.32l6.68-3.85a.19.19,0,0,1,.25,0,.42.42,0,0,1,.11.34Z" transform="translate(-111.13 -153.29)"/>
<path class="cls-6" d="M288.27,190.62a3.48,3.48,0,0,1,1.57-.53,2.25,2.25,0,0,1,1.24.26,2.1,2.1,0,0,1,.82.85,2.74,2.74,0,0,1,.31,1.2.81.81,0,0,1-.09.37.53.53,0,0,1-.2.25l-1.75,1a.41.41,0,0,1-.3.09.43.43,0,0,1-.24-.11l-.12-.13a.67.67,0,0,0-.25-.16.85.85,0,0,0-.4,0,1.67,1.67,0,0,0-.59.22,3.3,3.3,0,0,0-.49.34,2.67,2.67,0,0,0-.42.4,2.18,2.18,0,0,0-.29.49,1.43,1.43,0,0,0-.11.58.67.67,0,0,0,.12.45.63.63,0,0,0,.43.13,3.6,3.6,0,0,0,.8-.12l1.23-.32a3.91,3.91,0,0,1,1.29-.16,1.47,1.47,0,0,1,.91.34,1.86,1.86,0,0,1,.55.92,5.72,5.72,0,0,1,.18,1.58,6.79,6.79,0,0,1-.31,2.05,8,8,0,0,1-.86,1.91,8.79,8.79,0,0,1-1.31,1.66,8.59,8.59,0,0,1-1.65,1.26,4.11,4.11,0,0,1-1.67.59,2.32,2.32,0,0,1-1.29-.23,2.12,2.12,0,0,1-.85-.88,3.1,3.1,0,0,1-.32-1.36.88.88,0,0,1,.09-.38.54.54,0,0,1,.19-.24l1.76-1a.45.45,0,0,1,.29-.1.48.48,0,0,1,.21.09,1.61,1.61,0,0,1,.17.18.89.89,0,0,0,.28.21.93.93,0,0,0,.46.08,1.58,1.58,0,0,0,.68-.25,5.08,5.08,0,0,0,1.18-.92,1.62,1.62,0,0,0,.48-1.13.44.44,0,0,0-.18-.41.86.86,0,0,0-.52-.08,4.23,4.23,0,0,0-.89.17l-1.28.33a1.93,1.93,0,0,1-2-.36,3.68,3.68,0,0,1-.63-2.46,6.7,6.7,0,0,1,.26-1.84,8.27,8.27,0,0,1,.76-1.86,8.58,8.58,0,0,1,1.19-1.67A6.35,6.35,0,0,1,288.27,190.62Z" transform="translate(-111.13 -153.29)"/></g>
<g id="Box-3" data-name="Box">
<path id="Shadow-2" data-name="Shadow" class="cls-1" d="M290.45,222.65l-35,20.19a3.06,3.06,0,0,0-1.4,2.42v42.23c0,.9.62,1.26,1.4.81l35-20.19a3.09,3.09,0,0,0,1.4-2.42V223.46C291.85,222.56,291.22,222.2,290.45,222.65Z" transform="translate(-111.13 -153.29)"/>
<g id="Box-4" data-name="Box">
<path class="cls-7" d="M295.82,224.34l-35,20.18a3.08,3.08,0,0,0-1.4,2.43v42.23a3.07,3.07,0,0,0,1.4,2.41l2.67,1.51a3.12,3.12,0,0,0,2.81,0l35-20.19a3.09,3.09,0,0,0,1.4-2.42V228.24a3.05,3.05,0,0,0-1.41-2.41l-2.67-1.51A3.1,3.1,0,0,0,295.82,224.34Z" transform="translate(-111.13 -153.29)"/>
<path class="cls-3" d="M266.26,293.09a3.22,3.22,0,0,1-2.81,0l-2.67-1.52a3.07,3.07,0,0,1-1.4-2.41V247a2.87,2.87,0,0,1,.44-1.43l5.45,3.15a2.76,2.76,0,0,0-.41,1.38v42.23C264.86,293.1,265.43,293.57,266.26,293.09Z" transform="translate(-111.13 -153.29)"/>
<path class="cls-4" d="M302.68,228c-.11-.7-.69-1-1.39-.56l-35,20.19a2.87,2.87,0,0,0-1,1l-5.46-3.15a2.91,2.91,0,0,1,1-1l35-20.19a3.13,3.13,0,0,1,2.8,0l2.67,1.51A3.12,3.12,0,0,1,302.68,228Z" transform="translate(-111.13 -153.29)"/>
<path class="cls-7" d="M301.3,227.44l-35,20.18a3.1,3.1,0,0,0-1.4,2.43v42.23c0,.89.62,1.26,1.4.81l35-20.19a3.09,3.09,0,0,0,1.4-2.42V228.24C302.7,227.35,302.07,227,301.3,227.44Z" transform="translate(-111.13 -153.29)"/></g>
<g id="_2" data-name="&lt;/&gt;">
<path class="cls-5" d="M274.59,255.65a1.17,1.17,0,0,1,.09-.48,3.41,3.41,0,0,1,.24-.45l4.58-7.39.07-.09.05,0a.13.13,0,0,1,.17,0,.29.29,0,0,1,.07.23v2.85a1.2,1.2,0,0,1-.13.59l-.23.39-2,3.08,2,.78a.92.92,0,0,1,.23.11c.09,0,.13.2.13.43v2.85a.67.67,0,0,1-.07.31.42.42,0,0,1-.17.2l-.05,0h-.07l-4.58-2.11a.55.55,0,0,1-.24-.17.57.57,0,0,1-.09-.38Z" transform="translate(-111.13 -153.29)"/>
<path class="cls-5" d="M284.56,243.12a2.36,2.36,0,0,1,.17-.46,1,1,0,0,1,.33-.36l1.53-.88a.14.14,0,0,1,.18,0,.3.3,0,0,1,.08.23.61.61,0,0,1,0,.17L283,258.3a2,2,0,0,1-.16.45.87.87,0,0,1-.34.37L281,260a.15.15,0,0,1-.18,0,.3.3,0,0,1-.07-.23.59.59,0,0,1,0-.17Z" transform="translate(-111.13 -153.29)"/>
<path class="cls-5" d="M293,245.79a1.42,1.42,0,0,1-.08.48,3.62,3.62,0,0,1-.25.45l-4.57,7.39-.08.09s0,0-.05,0a.13.13,0,0,1-.17,0,.3.3,0,0,1-.07-.23v-2.85a1.24,1.24,0,0,1,.13-.58q.14-.24.24-.39l2-3.09-2-.76a.89.89,0,0,1-.24-.12.56.56,0,0,1-.13-.44v-2.86a.66.66,0,0,1,.07-.3.43.43,0,0,1,.17-.2l.05,0h.08l4.57,2.11a.67.67,0,0,1,.25.16.71.71,0,0,1,.08.39Z" transform="translate(-111.13 -153.29)"/></g>
<path class="cls-8" d="M273.14,274.21c0,.18,0,.43,0,.75s0,.65,0,1,0,.66,0,1,0,.57,0,.74a5,5,0,0,0,.12.84,1.22,1.22,0,0,0,.3.59.73.73,0,0,0,.51.24,1.43,1.43,0,0,0,.76-.25,2.83,2.83,0,0,0,.75-.6,3.68,3.68,0,0,0,.48-.68,3.38,3.38,0,0,0,.29-.69,5,5,0,0,0,.15-.62,3.09,3.09,0,0,1,.15-.55.73.73,0,0,1,.31-.32l1.75-1a.15.15,0,0,1,.21,0,.34.34,0,0,1,.09.27,8,8,0,0,1-.34,2.17,10.09,10.09,0,0,1-.88,2.12,10.61,10.61,0,0,1-1.32,1.84,6.66,6.66,0,0,1-1.64,1.35,3.53,3.53,0,0,1-1.72.55,1.92,1.92,0,0,1-1.29-.46,2.82,2.82,0,0,1-.83-1.31,7.09,7.09,0,0,1-.33-2c0-.56,0-1.16,0-1.8s0-1.27,0-1.87a11.48,11.48,0,0,1,1.15-4.6,9,9,0,0,1,1.29-2,7,7,0,0,1,1.73-1.44,3.63,3.63,0,0,1,1.64-.54,2.24,2.24,0,0,1,1.32.32,2.35,2.35,0,0,1,.88,1.1,4.52,4.52,0,0,1,.34,1.78.81.81,0,0,1-.09.37.57.57,0,0,1-.21.26l-1.75,1c-.15.09-.26.1-.31,0a1,1,0,0,1-.15-.37,2,2,0,0,0-.15-.45.75.75,0,0,0-.29-.36.8.8,0,0,0-.48-.13,1.8,1.8,0,0,0-.75.27,2.81,2.81,0,0,0-.76.64,3.31,3.31,0,0,0-.51.82,3.88,3.88,0,0,0-.3.93A8.19,8.19,0,0,0,273.14,274.21Z" transform="translate(-111.13 -153.29)"/>
<path class="cls-8" d="M283.87,262.33a3.48,3.48,0,0,1,1.57-.53,2.25,2.25,0,0,1,1.24.26,2.1,2.1,0,0,1,.82.85,2.74,2.74,0,0,1,.31,1.2.81.81,0,0,1-.09.37.48.48,0,0,1-.2.25l-1.75,1a.46.46,0,0,1-.3.09.38.38,0,0,1-.23-.11l-.13-.13a.67.67,0,0,0-.25-.16.85.85,0,0,0-.4,0,1.49,1.49,0,0,0-.59.22,3.91,3.91,0,0,0-.49.34,3.19,3.19,0,0,0-.42.4,2.18,2.18,0,0,0-.29.49,1.43,1.43,0,0,0-.11.58.67.67,0,0,0,.12.45.63.63,0,0,0,.43.13,3.6,3.6,0,0,0,.8-.12l1.23-.32a4.24,4.24,0,0,1,1.29-.17,1.54,1.54,0,0,1,.91.35,1.86,1.86,0,0,1,.55.92,5.72,5.72,0,0,1,.18,1.58,7.11,7.11,0,0,1-.3,2.05,8.44,8.44,0,0,1-.87,1.91,8.79,8.79,0,0,1-1.31,1.66,8.3,8.3,0,0,1-1.65,1.26,4.06,4.06,0,0,1-1.67.59,2.32,2.32,0,0,1-1.29-.23,2.12,2.12,0,0,1-.85-.88,3.1,3.1,0,0,1-.32-1.36.88.88,0,0,1,.09-.38.54.54,0,0,1,.19-.24l1.76-1a.45.45,0,0,1,.29-.1.57.57,0,0,1,.22.09l.16.18a.89.89,0,0,0,.28.21,1,1,0,0,0,.46.08,1.58,1.58,0,0,0,.68-.25,5.08,5.08,0,0,0,1.18-.92,1.62,1.62,0,0,0,.48-1.13.44.44,0,0,0-.18-.41.86.86,0,0,0-.52-.08,4.23,4.23,0,0,0-.89.17l-1.28.33a1.93,1.93,0,0,1-2-.36,3.68,3.68,0,0,1-.63-2.46,7.23,7.23,0,0,1,.26-1.85,8.39,8.39,0,0,1,.76-1.85,8.58,8.58,0,0,1,1.2-1.68A6.31,6.31,0,0,1,283.87,262.33Z" transform="translate(-111.13 -153.29)"/>
<path class="cls-8" d="M292.89,257.11a3.53,3.53,0,0,1,1.58-.52,2.25,2.25,0,0,1,1.24.26,2.08,2.08,0,0,1,.81.85,2.61,2.61,0,0,1,.31,1.2.81.81,0,0,1-.09.37.47.47,0,0,1-.19.25l-1.75,1a.55.55,0,0,1-.31.09.44.44,0,0,1-.23-.11l-.13-.13a.72.72,0,0,0-.24-.16.89.89,0,0,0-.41,0,1.55,1.55,0,0,0-.59.22,3.91,3.91,0,0,0-.49.34,3.11,3.11,0,0,0-.41.4,1.86,1.86,0,0,0-.29.49,1.43,1.43,0,0,0-.12.58.58.58,0,0,0,.13.44.57.57,0,0,0,.43.14,3.52,3.52,0,0,0,.79-.12l1.24-.32a4.18,4.18,0,0,1,1.28-.17,1.57,1.57,0,0,1,.92.35,1.94,1.94,0,0,1,.55.92,5.72,5.72,0,0,1,.18,1.58,6.79,6.79,0,0,1-.31,2,8,8,0,0,1-.86,1.91,8.45,8.45,0,0,1-1.32,1.66,8,8,0,0,1-1.65,1.26,4.07,4.07,0,0,1-1.66.59,2.32,2.32,0,0,1-1.29-.23,2.09,2.09,0,0,1-.85-.89,2.91,2.91,0,0,1-.32-1.36,1,1,0,0,1,.08-.37.55.55,0,0,1,.2-.24l1.75-1a.54.54,0,0,1,.3-.09.32.32,0,0,1,.21.09,1.07,1.07,0,0,1,.16.18.94.94,0,0,0,.29.21.89.89,0,0,0,.45.08,1.54,1.54,0,0,0,.68-.25,5.15,5.15,0,0,0,1.19-.92,1.65,1.65,0,0,0,.47-1.13.44.44,0,0,0-.17-.41.81.81,0,0,0-.52-.08,4.3,4.3,0,0,0-.9.17l-1.27.33a1.94,1.94,0,0,1-2-.36,3.67,3.67,0,0,1-.64-2.46,6.79,6.79,0,0,1,.27-1.85,8.63,8.63,0,0,1,.75-1.86,8.82,8.82,0,0,1,1.2-1.67A6.79,6.79,0,0,1,292.89,257.11Z" transform="translate(-111.13 -153.29)"/></g>
<g id="Text_Box" data-name="Text Box">
<path id="Shadow-3" data-name="Shadow" class="cls-1" d="M193.85,173.83l-80.71,46.5a4.41,4.41,0,0,0-2,3.47v45.05c0,1.28.9,1.8,2,1.16l80.71-46.5a4.42,4.42,0,0,0,2-3.47V175C195.86,173.71,195,173.19,193.85,173.83Z" transform="translate(-111.13 -153.29)"/>
<g id="Box-5" data-name="Box"><g id="Speech_Bubble" data-name="Speech Bubble">
<g id="Speach_Bubble" data-name="Speach Bubble">
<path class="cls-9" d="M201.61,178.68l-80.72,46.5a4.42,4.42,0,0,0-2,3.46V273.7a4.36,4.36,0,0,0,2,3.45l3.31,1.88a4.49,4.49,0,0,0,4,0L209,232.51a4.41,4.41,0,0,0,2-3.47V184a4.39,4.39,0,0,0-2-3.45l-3.31-1.87A4.48,4.48,0,0,0,201.61,178.68Z" transform="translate(-111.13 -153.29)"/>
<path class="cls-10" d="M201.61,178.68l-80.72,46.5a4.42,4.42,0,0,0-2,3.46V273.7a4.36,4.36,0,0,0,2,3.45l3.31,1.88a4.49,4.49,0,0,0,4,0L209,232.51a4.41,4.41,0,0,0,2-3.47V184a4.39,4.39,0,0,0-2-3.45l-3.31-1.87A4.48,4.48,0,0,0,201.61,178.68Z" transform="translate(-111.13 -153.29)"/>
<path class="cls-9" d="M210.93,183.62c-.16-1-1-1.37-2-.79l-80.71,46.5a4.08,4.08,0,0,0-1.42,1.49l-7.3-4.22a4,4,0,0,1,1.38-1.43l80.71-46.5a4.51,4.51,0,0,1,4,0l3.31,1.87A4.42,4.42,0,0,1,210.93,183.62Z" transform="translate(-111.13 -153.29)"/>
<path class="cls-9" d="M209,182.83l-80.72,46.5a4.42,4.42,0,0,0-2,3.46v45.06c0,1.28.9,1.8,2,1.16L209,232.51a4.41,4.41,0,0,0,2-3.47V184C211,182.71,210.06,182.19,209,182.83Z" transform="translate(-111.13 -153.29)"/>
<g class="cls-11">
<path d="M209,182.83l-80.72,46.5a4.42,4.42,0,0,0-2,3.46v45.06c0,1.28.9,1.8,2,1.16L209,232.51a4.41,4.41,0,0,0,2-3.47V184C211,182.71,210.06,182.19,209,182.83Z" transform="translate(-111.13 -153.29)"/></g></g></g></g>
<path class="cls-12" d="M146.56,230.1a.37.37,0,0,1,.49,0,.85.85,0,0,1,.21.64V256.4a2,2,0,0,1-.21.87,1.22,1.22,0,0,1-.49.6l-3.37,1.95a.37.37,0,0,1-.49,0,.84.84,0,0,1-.21-.64v-9.72l-5.72,3.31v9.72a2,2,0,0,1-.21.87,1.27,1.27,0,0,1-.49.6l-3.37,1.95a.4.4,0,0,1-.49,0,.84.84,0,0,1-.21-.66V239.58a2,2,0,0,1,.21-.88,1.33,1.33,0,0,1,.49-.6l3.37-1.95a.37.37,0,0,1,.49,0,.83.83,0,0,1,.21.63v9.57l5.72-3.31v-9.56a2,2,0,0,1,.21-.87,1.27,1.27,0,0,1,.49-.6Z" transform="translate(-111.13 -153.29)"/>
<path class="cls-12" d="M165.4,219.22a.37.37,0,0,1,.49,0,.87.87,0,0,1,.21.64v4.21a2,2,0,0,1-.21.87,1.27,1.27,0,0,1-.49.6l-4.53,2.62v20.35a2,2,0,0,1-.21.88,1.33,1.33,0,0,1-.49.6L156.8,252a.37.37,0,0,1-.49,0,.83.83,0,0,1-.21-.63V230.94l-4.54,2.62a.35.35,0,0,1-.48,0,.83.83,0,0,1-.21-.63v-4.21a2,2,0,0,1,.21-.87,1.31,1.31,0,0,1,.48-.6Z" transform="translate(-111.13 -153.29)"/>
<path class="cls-12" d="M177.25,233.16a1.81,1.81,0,0,1-.35-.46l-2.42-5.15v13.14a2,2,0,0,1-.21.87,1.33,1.33,0,0,1-.49.6l-3.38,2a.38.38,0,0,1-.49,0,.91.91,0,0,1-.2-.64V217.81a2.16,2.16,0,0,1,.2-.88,1.33,1.33,0,0,1,.49-.6l3-1.72c.35-.2.61-.2.78,0a2.32,2.32,0,0,1,.33.44l4.18,8.58,4.17-13.4c.05-.17.17-.44.34-.83a1.8,1.8,0,0,1,.77-.88l3-1.73a.38.38,0,0,1,.49,0,.87.87,0,0,1,.21.64v25.63a2,2,0,0,1-.21.88,1.33,1.33,0,0,1-.49.6l-3.38,1.95a.38.38,0,0,1-.49,0,.86.86,0,0,1-.2-.63V222.7l-2.42,8c-.09.26-.21.54-.35.85a1.53,1.53,0,0,1-.61.69l-1.65.95C177.59,233.29,177.39,233.3,177.25,233.16Z" transform="translate(-111.13 -153.29)"/>
<path class="cls-12" d="M205.17,217.69a.37.37,0,0,1,.49,0,.85.85,0,0,1,.21.64v4.2a2.06,2.06,0,0,1-.21.88,1.27,1.27,0,0,1-.49.6l-11.93,6.89a.38.38,0,0,1-.49,0,.83.83,0,0,1-.21-.63V204.62a2,2,0,0,1,.21-.87,1.33,1.33,0,0,1,.49-.6l3.38-2a.36.36,0,0,1,.48,0,.87.87,0,0,1,.21.64v20.36Z" transform="translate(-111.13 -153.29)"/>
</g>
<path class="cls-13" d="M218.53,190.27c1.16-.66,2.1-.12,2.1,1.21a4.63,4.63,0,0,1-2.1,3.63c-1.15.66-2.09.12-2.09-1.21A4.64,4.64,0,0,1,218.53,190.27Z" transform="translate(-111.13 -153.29)"/>
<path class="cls-13" d="M252,199.94c1.15-.67,2.09-.12,2.09,1.21a4.64,4.64,0,0,1-2.09,3.63c-1.16.66-2.1.12-2.1-1.21A4.63,4.63,0,0,1,252,199.94Z" transform="translate(-111.13 -153.29)"/>
<path class="cls-13" d="M241.44,208.69a2.55,2.55,0,0,1-1.25-.34,2.47,2.47,0,0,1-1.24-2.16V184a1.42,1.42,0,0,0-2.13-1.23l-18,10.41-.52-.9,18-10.41A2.46,2.46,0,0,1,240,184v22.23a1.43,1.43,0,0,0,.73,1.26,1.44,1.44,0,0,0,1.46,0l9.6-5.55.51.9-9.6,5.54A2.52,2.52,0,0,1,241.44,208.69Z" transform="translate(-111.13 -153.29)"/>
<path class="cls-13" d="M218.53,214.45c1.16-.67,2.1-.13,2.1,1.21a4.61,4.61,0,0,1-2.1,3.62c-1.15.67-2.09.13-2.09-1.2A4.64,4.64,0,0,1,218.53,214.45Z" transform="translate(-111.13 -153.29)"/>
<path class="cls-13" d="M252,267.62c1.15-.66,2.09-.12,2.09,1.21a4.64,4.64,0,0,1-2.09,3.63c-1.16.67-2.1.12-2.1-1.21A4.63,4.63,0,0,1,252,267.62Z" transform="translate(-111.13 -153.29)"/>
<path class="cls-13" d="M233.06,281.19a2.5,2.5,0,0,1-2.48-2.49V213a1.42,1.42,0,0,0-.71-1.23,1.41,1.41,0,0,0-1.43,0l-9.65,5.58-.52-.89,9.66-5.58a2.42,2.42,0,0,1,2.45,0,2.44,2.44,0,0,1,1.23,2.13V278.7a1.46,1.46,0,0,0,2.18,1.26l18-10.37.51.9-18,10.36A2.45,2.45,0,0,1,233.06,281.19Z" transform="translate(-111.13 -153.29)"/></g></svg>